<?xml version="1.0" encoding="UTF-8"?>
<svg id="Layer_1" data-name="Layer 1" xmlns="http://www.w3.org/2000/svg" xmlns:xlink="http://www.w3.org/1999/xlink" viewBox="0 0 3648.79 1010.45">
  <defs>
    <style>
      .cls-1 {
        fill: #f75459;
      }

      .cls-2 {
        fill: #c6b78a;
      }

      .cls-3, .cls-4 {
        fill: #39b54a;
      }

      .cls-5 {
        letter-spacing: -.11em;
      }

      .cls-6 {
        fill: #6e2830;
      }

      .cls-7 {
        fill: #8d232f;
      }

      .cls-8 {
        fill: #ffb7bb;
      }

      .cls-9 {
        fill: #fff;
      }

      .cls-10 {
        fill: #a5cf87;
      }

      .cls-11 {
        fill: #d0ebc0;
      }

      .cls-12 {
        fill: #f07d84;
      }

      .cls-13 {
        letter-spacing: .03em;
      }

      .cls-14 {
        fill: #52a138;
      }

      .cls-15 {
        fill: #73bd4a;
      }

      .cls-16 {
        letter-spacing: -.09em;
      }

      .cls-17 {
        fill: #dd282d;
      }

      .cls-4 {
        font-family: DFVN-BagelFatOne-Regular, 'DFVN Bagel Fat One';
        font-size: 541.73px;
      }

      .cls-18 {
        letter-spacing: .02em;
      }

      .cls-19 {
        fill: url(#linear-gradient);
      }
    </style>
    <linearGradient id="linear-gradient" x1="2490.73" y1="613.36" x2="2490.73" y2="308.96" gradientUnits="userSpaceOnUse">
      <stop offset=".17" stop-color="#4ac73f"/>
      <stop offset="1" stop-color="#d0ebc0"/>
    </linearGradient>
  </defs>
  <g>
    <g>
      <path class="cls-15" d="M1200.38,737.24c5.27,7.23,17.51,33.64,20.99,44.44s1.81,21.83-7.07,30.28l-9.41,8.95c-3.92,3.73-36.24,31.04-41.57,35.26l-23.73,18.77c-53.88,42.61-130.11,77.52-197.24,92.9l-12.54,2.87-13.63,3.48c-6.95,1.78-13.31,3.93-20.58,4.18-5.31.18-10.05,2.29-15.16,3.08l-32.11,4.96-12.58,3.65-71.75,10.33-14.27.69-21.6,2.41c-7.56.84-15.05.82-22.65,2.59-3.81.89-7.2.25-10.91,0-5.85-.41-11.57,1.71-17.43,1.87l-27.39.72-30.55.89c-13.33.39-26.18.94-39.58.88l-66.64-.29-11.03-.71-20.66-.91c-13.94-.61-27.21-1.35-41.1-2.44l-28.24-2.22-45.5-4.39-43.27-5.39c-14.54-1.81-28.2-4.5-42.47-7.15l-32.11-5.95-54.34-11.65c-19.62-4.21-37.68-9.06-57.06-14.49-44.34-12.42-87.09-28.23-127.55-50.22-7.22-3.92-11.28-11.49-9.02-20.02,3.48-13.14,9.88-25.2,14.4-38.02,2.27-6.45,4.64-11.45,8.25-16.42,1.36-1.98,2.82-2.46,4.38-1.43,37.57,18.77,78.06,33.63,119.11,44.26,50.26,12.3,101.59,23.95,153.98,34.95l101.66,16.17c72.19,7.41,142.46,9.43,216.96,8.67,16.85-.17,35.76-1.14,52.43-2.17,58.06-3.59,109.02-9.66,167.34-18.45,44.05-6.64,80.91-15.98,123.74-26.98.85-.22,1.78-.16,2.74-.07s1.97.34,2.94.63c5.86-1.52,11.64-3.58,16.71-6.95-.48-3.34,3.79-4.11,5.02-.93,1.16,1.29,1.25,2.29-.18,3.15,11.4,23.96,40.36,16.12,21.43-9.12l.54-2.49c-1.39-1.69-1.4-2.94.73-2.47l4.56-2.02,1.71-3.09c63.44-33.42,124.07-78.55,177.47-126.09.93-.91,2.21-.41,3.83,1.49Z"/>
      <g>
        <path class="cls-11" d="M661.14,832.59c6.22-1.26,12.67-.9,19.45-1.32l18.31-1.15,26.79-2.41,30.8-2.8,93.76-13.43c16.42-2.35,31.48-7.18,47.51-10.73,12.58-2.78,24.27-6.75,36.06-10.38l7.84-1.04c14.37,29.46,29.18,58.92,45.34,87.67-5.31,4.49-11.46,7.41-18.44,8.76-10.11,2.99-20.23,6.23-30.99,8.78l-40.33,9.53-30.32,5.5c-31.95,5.79-64.02,10.81-96.42,14.5l-36.91,4.2c-14.28,1.63-27.85,3.03-42.31,3.25-7.09.11-14.08,1.14-21.13,1.36l-32.26.99c-6.89.21-13.5.98-20.52,1.18-25.82.72-51.3.78-77.09-.12l-27.39-.96-52.24-2.85-44.32-3.24c-14.47-1.06-28.01-4.03-42.24-6.25l-41.34-6.46c-21.88-3.42-42.89-6.32-64.45-11.25-21.37-4.89-41.85-9.85-63.2-14.87l-16.71-3.93-42.14-10-25.46-6.99c-10.3-2.83-19.87-6.49-29.83-10.18l-27.75-10.3-31.15-14.2c-3.07-1.4-5.54-3.62-8.76-3.25,5.32-7.32,18.86-47.84,25.24-62.18,3.64-8.18,7.37-15.84,9.3-24.18,2.42-2.24,5.68-2.5,9.77-.8,62.61,28.98,130.19,47.62,196.7,62.04,49.12,10.65,99.21,17.04,148.77,21.29,81.01,6.95,164.89,8.47,248.09,6.24Z"/>
        <path class="cls-11" d="M1200.38,737.24c-2.5-1.37-3.57,1.87-5.48,3.23-7.15,5.12-12.82,10.69-19.4,16.48-27.49,24.19-56.87,44.8-87.07,65.54-16.41,11.27-31.83,21.82-49.43,30.88-7.52,3.87-14.14,8.58-21.63,11.55l-6.15,2.97-1.77-1.89c-13.07-28.4-27.66-56.41-43.75-84.04-1.74-2.64-1.56-4.48.52-5.5,1.16-1.77,2.72-3.97,5.05-5.23,13.79-7.48,26-16.15,39.33-24.54,18.08-11.39,34.06-24.56,50.54-38.08,8.34-6.84,16.16-13.17,23.96-20.57l20.01-19.02c5.59-5.31,11.05-10.39,16.29-16.08,7.35-7.98,12.63-14.88,22.66-18.33,1.51,3.56,2.67,7.63,4.98,11.43,12.3,20.21,24.52,39.97,34.15,61.65,4.88,10.98,10.48,20.32,17.22,29.56Z"/>
      </g>
      <path class="cls-10" d="M1017.37,864.92c-1.93.76-4.04,2.88-5.29,4.49l-2,2.82-16.41,6.66-3.38-1.01c-1.02.38-2.51-.19-3.84.78-5.44,3.98-11.55,6.72-17.89,7.11-4.76,1.41,19.78-7.27,16.5-8.19-10-16.34-18.04-32.96-26.66-50.08-6.27-12.46-13.08-23.86-18.12-36.77-2.68-.5-4.5-.3-6.46-.34-3.92,1.21,14.86-4.78,7.68-3.15l1.03-.02,10.96-4.45c3.79-1.33,7.25-3.91,10.74-5.43l1.98-.87c.4,3.37,2.38,6.44,4.4,9.66,8.47,13.55,15.68,27.09,22.65,41.48l18.69,38.6,5.42-1.27Z"/>
      <path class="cls-14" d="M1012.08,869.41c4.36,3.93,7.72,10.8,8.01,17.08.34,7.44-6.74,12.15-13.54,11.24-10.04-1.34-13.93-10.12-19.5-17.15,1.45-1.17,2.51-1.71,3.24-2.7,7.32-2.71,14.22-6.56,21.79-8.46Z"/>
    </g>
    <g>
      <g>
        <path class="cls-1" d="M1144.03,634.6c-.82,2.42-2.88,4.22-6.18,5.41l-5.05,3.98c-46.79,49.64-100.21,95.08-160.91,129.37-1.67,2.02-3.56,3.05-5.68,3.1.39,2.92.04,3.06-1.98.87-2.69-2.97-4.89-6.59-6.61-10.88-25.53-56.21-53.07-110.77-82.19-163.62-8.12-20.02-35.73-13.32-25.92,8.11,28.62,58.03,58.03,115.77,88.23,173.22,1.95.67,3.21,1.69,3.75,3.07,4.97-.84,1.31,4.32-2.28,2.39-3.46-.13-5.23.6-5.29,2.2l-.11-1.44c-.59.76-1.21,1.49-1.93,2.11s-1.37,1.16-2.14,1.43c-6.28,2.14-12.7,4.02-19.09,5.81-49.63,13.95-103.35,21.04-153.92,27.34-30.74,3.14-61.73,5.56-92.96,7.26l-2.65-1.74c-73.33,2.29-147.13.79-220.02-3.93-92.72-6.01-182.75-22.07-272.98-47.75-34.04-9.69-67.17-22.04-99.05-37.34-3.37-1.03-6.73-1.72-10.05-2.05.03-.32-.16-.66-.08-.97l.87-2.23c.29-5.5,4.12-9.96,6.15-15.4,8.54-22.94,18.75-44.37,28.15-67.01l19.09-45.99c6.78-16.33,12.42-32.28,20.06-48.19,4.83-10.06,8.29-20.22,13.61-29.9,5.33-9.69,8.88-19.54,13.58-29.63l26.8-57.59,23.72-52.24,17.64-37.67,30.47-63.38,7.99-15.18c11.58-22,23.56-43.2,34.95-65.29l10.78-20.92,35.3-62.22,27.72-48.25c17.23-29.99,49.34-66.55,84.89-74.98,7.69-1.82,31.63-4.66,38.94-4.46l12.58.34,23.16.28,46.56.19,34.66,2.37c10.75.73,20.67,3.57,31.28,5.5,19.38,3.53,43.46,14.96,58.28,27.18l13.69,11.29,49.71,48.75c7.95,7.79,14.21,15.94,21.21,24.29l13.43,16c9.16,10.91,17.28,21.94,26.81,32.52,6.36,7.06,11.31,14.69,17.15,21.84l15.63,19.13,27,32.65c20.76,25.11,43.17,58.56,62.25,86.03l24.02,34.59,26.65,38.24c12.44,17.84,24.43,34.68,35.62,53.34l23.97,39.96,16.53,28.9,31.27,52.06c10.47,17.42,21.64,33.53,30.61,51.71,1.32,2.68,1.4,5.33,2.3,7.44Z"/>
        <g>
          <path class="cls-2" d="M661.14,832.59c-10.57,2.14-21.64.85-33.17,1.51-34.85,1.99-64.87,0-99.48-1.06l-33.65-1.02-16.87-.68-19.5-1.14-20.56-1.08-13-1.12-11.93-.97-44.37-4.21-38.98-5.48-47.16-7.92c-14.6-2.45-28.22-5.81-42.51-9.39l-64.18-16.04c-37.25-9.31-72.43-23.03-107.01-39.32-3.92-1.84-7.56-2.98-10.95-.87.2-.87.61-1.66,1.23-2.31,4.68-.47,9.13.04,13.96,2.36,55.01,26.37,97.48,37.33,156.07,51.76l34.65,8.53,59.43,10.77c16.45,2.98,32.14,5.19,48.7,6.78l44.39,4.26,11.93.95,13,1.12,20.56,1.08c7.02.37,13.61.86,20.59,1.14l16.86.67,33.67,1.04,39.9,1.08c15.93.43,31.8.26,47.73.06l40.67-.51Z"/>
          <path class="cls-2" d="M58.96,740.55c.2-.69-.14-2.22.87-2.23-.04.78.21,2.14-.87,2.23Z"/>
          <g>
            <path class="cls-9" d="M361.34,295.62c-1.34,2.44-1.67,4.8-3.92,5.67-2.66,1.02-5.21.72-7.95-.63l-35.04-17.19c-3.42-1.68-5.97-5.44-4.06-9.59,12.92-28.05,27.7-54.3,43.23-81.05,13.52-23.29,25.85-46.23,40.89-68.66,2.58-3.85,8.77-1.88,11.96-.04,11.17,6.45,21.71,11.68,33.49,16.85,2.16.95,6.98,3.13,6.47,5.71-1.71,8.55-8.15,14.24-12.39,21.4l-34.65,58.45-38.02,69.08Z"/>
            <path class="cls-17" d="M828.15,561.71c-5.98-.82-11.43-5.59-14.5-10.6-13.35-21.72-23.66-44.42-36.27-66.72l-30.53-54.01-24.99-41.71c-1.49-2.49-2.57-6.67-1.86-9.67,1.46-6.2,6.85-11.92,13.15-13.5,13.73-3.43,23.32,17.65,29.38,27.89l24.45,41.33,20.33,36.17c12.49,22.22,25.24,43.52,36.06,66.57,2.58,5.48,2.35,11.59-.98,16.57-2.66,3.97-7.17,8.66-14.25,7.69Z"/>
            <path class="cls-17" d="M642.05,213.29c-2.25,4.56-6.22,7.01-9.8,7.49-12.69,1.69-18.14-10.78-25.36-21.64l-25.05-37.67c-9.19-13.83-19.04-26.11-29.39-39.01l-21.66-27.03c-8.92-11.13-18.41-21.3-26.61-32.99-4.33-6.18-1.28-15.09,3.85-18.91,6.29-4.67,13.49-4.42,19.78.71,7.96,6.49,14.67,14.02,21.43,21.89l26.53,30.91c11.21,13.07,20.31,27.07,30.4,41.01,7.19,9.93,30.22,46.78,35.22,57.04,2.84,5.84,3.84,11.74.64,18.21Z"/>
            <path class="cls-9" d="M313.71,391.48c-.96,2.21-4.1,8.05-6.54,6.75-13.73-7.3-26.02-15.64-40.02-21.85-3.12-1.38-4.44-4.83-3.25-8,4.64-12.37,10.82-23.44,16.62-35.3,2.56-5.23,3.87-11.54,8.59-15.36,2.24-1.81,6.9.3,9.28,1.45l27.62,13.36c3.6,1.74,8.56,3.03,10.58,6.69,2.06,3.74-.31,8.55-2.28,11.92-7.74,13.21-14.29,25.78-20.59,40.33Z"/>
            <path class="cls-17" d="M722.85,331.9c-.61,7.36-6.99,13.34-13.19,15.17-11.21,3.31-24.18-21.16-28.21-28.86-7.07-13.52-14.26-26.34-22.38-39.22-3.16-5-6.44-10.21-7.65-15.95-1.48-7.07,1.95-12.85,7.68-16.18,4.22-2.45,9.3-4.09,13.59-.91,4.27,3.16,8.45,6.65,11.25,11.46l33.42,57.63c2.86,4.93,6.04,10.16,5.49,16.85Z"/>
            <path class="cls-7" d="M886.99,374.79c3.39,5.66,3.68,12.16,1.02,18.91-3.27,8.29-19.63,17.6-31.56,8.45-11-8.45-17.01-20.64-21.84-33.45-6.47-17.15.36-34.12,10.51-31.89,17.44,3.82,33.11,23.35,41.87,37.99Z"/>
            <path class="cls-7" d="M645.94,464.76c-18.85,4.7-30.3-18.76-28.75-34.31,1.06-10.72,1.14-20.62,4.91-31.27,1.57-4.45,11.68-10.08,16.23-5.95,11.86,10.77,19.79,26.26,23.57,41.68,2.53,10.31-2.22,26.42-15.95,29.85Z"/>
            <path class="cls-7" d="M364.57,492.35c-7.81,9.65-22.43,6.88-29.27-2.14-6.14-8.1-7.71-17.92-5.8-27.92.42-10.23,2.75-19.49,5.46-29.46,1.72-6.35,9.05-12.41,15.92-9.95,18.58,6.66,25.07,55.42,13.69,69.47Z"/>
            <path class="cls-7" d="M507.97,292.17c-5.46,6.52-13.09,8.63-20.26,4.11-7.79-4.9-13.97-13.86-14.86-23.68-1.38-15.26,1.55-31.33,9.48-44.3,3.92-6.4,13.2-3.1,17.12,1.07,14.18,15.09,23.8,44.54,8.52,62.79Z"/>
            <path class="cls-7" d="M738.58,205.97c-3.2,4.89-9.75,6.56-14.79,5.79-15.84-2.39-19.77-21.54-24.39-35.94-2.22-6.92-3.47-21.71,2.88-26.18,14.85-10.46,28.13,12.58,34.79,24.4,5.55,9.85,8.35,21.47,1.51,31.93Z"/>
            <path class="cls-6" d="M438.05,606.68c-5.65,7.18-14,9.25-21.47,4.66-5.84-3.58-11.83-9.43-13.53-16.62-2.18-9.26.88-20.07,6.85-26.96,7.82-9.02,20.33-8.87,27.91-.3,4.86,5.49,9.14,12.54,8.24,20.22-.78,6.69-3.81,13.66-8,18.99Z"/>
            <path class="cls-6" d="M596.15,616.67c-13.03,3.49-24.85-6.03-25.86-19.37-1-13.25,12.12-36.32,25.55-28.5,7.62,4.43,13,12.23,13.39,21.1.47,10.84-3.43,20.92-13.09,26.78Z"/>
            <path class="cls-6" d="M532.69,627.23c5.08,2.42,4.62,9.93.62,14.01-18.74,19.12-45.3,15.68-60.84-3.23-2.05-2.49-1.52-7.57.09-9.91,2.11-3.05,7.15-3.2,10.06-1.37,3.94,2.47,6.8,7.64,11.9,8.42,8.21,1.26,17.92.35,25.27-3.3,3.96-1.97,7.01-7.43,12.9-4.62Z"/>
            <g>
              <circle class="cls-12" cx="692.45" cy="656" r="83"/>
              <path class="cls-8" d="M733.29,684.63c-5.5,5.77-14.38,2.64-18.1-3.53-5.18-8.6-8.3-17.66-12.26-26.88l-8.71-20.24c-2.52-5.87-7.02-18.36,1.33-20.83,6.35-1.88,12.59.07,15.31,6.19l8.93,20.09c4.3,9.67,7.64,19.05,13.36,28.23,2.97,4.76,4.75,12.15.14,16.98Z"/>
              <path class="cls-8" d="M684.27,672.44c1.63,4.28-1.93,9.71-5.56,10.6-5.8,1.42-10.91-.09-13.58-5.22-4.16-7.97-17.57-35.17-14.29-42.87,2.25-5.27,8.86-6.83,13.7-5.26,4.6,3.86,6.79,8.71,8.84,14.11l10.89,28.64Z"/>
            </g>
            <g>
              <circle class="cls-12" cx="316.67" cy="640.44" r="85.31"/>
              <path class="cls-8" d="M274.27,657.87c-1.96,4.4-3.18,9.42-8.29,11.63-4.41,1.91-9.52-.83-12.42-3.9-3.54-3.73-3.23-9.42-.98-14.32l10.47-22.82c3.82-8.32,8.68-15.72,13.18-23.56,1.78-3.1,4.36-5.25,6.91-5.8,5.34-1.16,12.63,2.34,14.51,7.39s-7.01,17.84-9.96,23.7l-9.47,18.84-3.94,8.85Z"/>
              <path class="cls-8" d="M326.66,663.29c-4.51,1.92-8.74-1.07-10.89-3.73-5.65-7,.27-18.74,3.65-26.75,2.18-5.18,4.04-11.29,9.61-14.09,4.37-2.19,10.11.96,12.41,4.29,2.84,4.12,2.16,9.25.32,13.76l-6.62,16.22c-1.59,3.9-3.89,8.33-8.48,10.28Z"/>
            </g>
          </g>
        </g>
      </g>
      <g>
        <path class="cls-17" d="M964.23,777.33c.01,3.61-7.96,8.14-10.74,5.43l-10.96,4.45-1.03.02c-1.93.04-4.3.13-5.64-2.03-9.12-14.69-15.77-30.12-23.76-45.49l-19.28-37.1-28.9-58.65c-6.06-12.3-12.93-23.39-18.06-36.11-2.83-7.03,1.31-15.9,8.39-18.32,16.39-5.62,23.03,12.51,29.66,24.47l11.62,20.96,31.38,61.6c7.75,15.21,14.63,29.92,21.99,45.31,4.88,10.19,8.47,20.44,14.21,30.17,1.08,1.83,1.79,3.51,1.13,5.29Z"/>
        <path class="cls-1" d="M953.49,782.76c-2.9,2.54-7.17,4.38-10.96,4.45,3.12-2.5,7.27-3.16,10.96-4.45Z"/>
      </g>
    </g>
  </g>
  <g>
    <g>
      <path class="cls-3" d="M1726.01,716.96c-34.04,0-60.43-10.8-80.68-33.02-3.87-4.25-7.5-8.9-10.88-14-2.72,4.56-5.61,8.73-8.68,12.56-18.59,23.19-43.92,34.46-77.44,34.46-40.68,0-72.32-16.46-94.07-48.93-17.4-25.98-27.04-58.78-37.84-98.97l-52.54-195c-2.15-7.87-3.2-16.3-3.2-25.68,0-25.18,8.91-46.57,25.77-61.85,15.73-14.25,37.05-21.79,61.65-21.79,38.23,0,67.28,23.27,77.72,62.26l1.18,4.31c4.96-33.63,26.69-56.13,62.44-64.1,7.69-2.03,15.52-3.01,23.89-3.01,29.45,0,65.5,18.04,78.37,68.66l21.55,84.86c-2.7-20.14-4.24-35.03-4.24-50.39,0-27.43,8.97-52.83,25.26-71.52,17.77-20.39,43.12-31.62,71.37-31.62,36.89,0,58.56,16.04,70.25,29.49,15.71,18.08,23.67,42.49,23.67,72.56s-9.59,64.25-18.05,93.44l-1.55,5.35-30.35,104.6c-.94,3.26-1.88,6.54-2.8,9.78-10.19,35.67-19,66.48-34.65,90.82-19.92,31-48.91,46.72-86.17,46.72Z"/>
      <path class="cls-3" d="M2143.14,716.42c-48.14,0-85.2-25.67-92.31-63.9-2.99-15.06-3.52-28.35-1.59-39.57h-47.87c1.67,10.06,1.21,22.21-1.42,38.67-.05.34-.12.69-.18,1.03-7.48,38.14-43.48,63.77-89.57,63.77-6.38,0-12.64-.63-18.7-1.23-.34-.03-.68-.07-1.02-.12-36.59-4.93-55.33-24.05-64.61-39.22-16.31-26.66-17.17-62.8-2.47-104.5l71.48-203.07c18.85-54.43,49.13-110.04,130.71-110.04,36.78,0,65.64,11.21,88.21,34.27,21.15,21.61,33.07,50.41,41.95,75.73l70.98,203.18c15.23,43.22,14.84,78.58-1.2,105.02-8.94,14.74-27.21,33.4-63.51,38.58-.31.04-.62.08-.93.12-5.34.59-11.4,1.27-17.94,1.27Z"/>
      <path class="cls-3" d="M2341.95,715.34c-23.16,0-44.76-7.86-60.82-22.13-17.15-15.24-26.6-36.31-26.6-59.34v-156.56c0-15.6,1.3-28.8,3.34-40.01-9.01,2.39-19.81,3.92-32.93,3.92-53.71,0-91.22-36.62-91.22-89.05s35.8-90.13,91.22-90.13h233.49c55.41,0,91.22,35.38,91.22,90.13s-37.51,89.05-91.22,89.05c-13.09,0-23.87-1.55-32.9-3.95,2.02,11.27,3.31,24.51,3.31,40.04v156.56c0,22.97-9.4,44.02-26.46,59.27-16.01,14.31-37.47,22.19-60.42,22.19Z"/>
      <path class="cls-3" d="M2687.57,714.25c-34.12,0-77.61-3.4-111.41-29.88-34.16-26.77-50.77-70.23-50.77-132.84,0-49.54,13.86-84.7,25.49-105.47,3.19-5.7,6.63-11.06,10.25-16.03-24.84-14.54-40.09-42.35-40.62-77.96,0-.15,0-2.07,0-2.07,0-24.79,7.85-46.36,22.69-62.38,15.29-16.5,37.13-25.59,61.48-25.59h194.48c27.01,0,48.49,7.24,63.84,21.51,16.01,14.89,24.13,35.97,24.13,62.67,0,24.71-8.01,45.61-23.17,60.45-8.87,8.68-19.68,14.95-32.31,18.76,1.93,1.31,3.79,2.71,5.57,4.21,15.29,12.84,23.37,31.2,23.37,53.1s-8.55,38.23-17.47,47.97c9.65,4.36,18.24,10.16,25.57,17.32,17.74,17.34,27.11,41.4,27.11,69.6,0,30.95-10.02,55.23-29.79,72.15-19.24,16.47-45.89,24.48-81.47,24.48h-96.97ZM2696.44,548.11c2.93-1.49,5.83-2.92,8.69-4.28-2.9-.72-5.8-1.45-8.69-2.19v6.47Z"/>
      <path class="cls-3" d="M3170.79,715.34c-51.13,0-87.12-35.45-89.56-88.21-1.55-35.01-12.15-48.98-29.42-53.75v54.53c0,52.29-34.26,87.42-85.26,87.42s-86.88-34.32-86.88-87.42v-76.38c0-41.3,6.7-74.32,20.49-100.95,4.01-7.75,8.64-14.92,13.85-21.48-6.01-3.74-11.5-8.31-16.39-13.7-14.15-15.59-22.22-37.18-23.33-62.45-.02-.44-.03-.88-.03-1.32v-1.63c0-51.6,35.63-89.05,84.71-89.05h138.14c47.49,0,85.57,11.87,113.19,35.29,21.12,17.9,46.29,52,46.29,112.81,0,36.48-10.49,68.15-30.34,91.58-3.92,4.62-8.16,8.88-12.67,12.74,7.02,5.93,13.36,12.65,18.94,20.11,18.49,24.68,27.86,55.72,27.86,92.27,0,34.62-13.66,55.11-25.13,66.19-15.83,15.31-38.12,23.4-64.46,23.4ZM3090.61,447.85c7.8,0,11.49-1.46,12.31-2.05.19-.36,1.03-2.23,1.03-6.96s-.81-7.08-1.07-7.63c-.68-.39-3.89-1.91-12.27-1.91h-41.51v18.55h41.51Z"/>
      <path class="cls-3" d="M3441.1,715.34c-22.96,0-44.41-7.88-60.42-22.19-17.06-15.25-26.46-36.3-26.46-59.27v-85.46c-15.88-30.08-36.64-52.03-56.77-73.3-19.99-21.13-38.87-41.09-50.85-66.72-14.3-29.61-17.04-61.57-7.51-87.72,8.22-22.57,24.87-40.02,48.15-50.5,12.97-6.01,26.22-9.05,39.39-9.05,38.84,0,73.1,26.65,89.42,69.56.06.15.12.31.17.47,6.22,17.22,8.91,37.12,11.51,56.36,1.89,14.03,3.68,27.27,6.59,37.89,2.65,9.69,5.15,12.95,5.87,13.75.19.02.49.05.9.05.71,0,1.15-.06,1.38-.1.61-.62,3.13-3.66,5.8-13.47,2.87-10.56,4.57-23.81,6.38-37.83,2.49-19.33,5.06-39.31,11.33-56.64,20.77-57.12,60.98-69.1,91.05-69.1,13.51,0,26.26,2.73,37.89,8.11,34.74,15.54,53.87,45.62,53.87,84.73,0,17.26-4.43,35.25-13.18,53.47-12.12,25.97-31.14,46.38-51.27,67.98-19.69,21.12-40,42.92-56.36,72.43v85.12c0,22.98-9.3,44.01-26.18,59.21-15.95,14.35-37.51,22.26-60.7,22.26Z"/>
    </g>
    <g>
      <path class="cls-9" d="M1716.01,702.96c-46.39,0-74.18-21.15-91.72-49.79-3.35,6.13-6.96,11.57-10.86,16.45-17.98,22.43-42.55,33.34-75.1,33.34-40.17,0-70.12-15.57-91.57-47.59-17.14-25.6-26.71-58.17-37.43-98.08l-52.54-195.01c-2.08-7.62-3.1-15.79-3.1-24.9,0-24.31,8.57-44.93,24.78-59.62,15.17-13.74,35.79-21.01,59.64-21.01,36.79,0,64.76,22.45,74.82,60.05l6.03,22.05c-.03-1.03-.05-2.06-.05-3.09,0-40.66,21.74-67.84,61.24-76.62,7.46-1.97,15.05-2.93,23.18-2.93,28.32,0,63.02,17.44,75.47,66.39l34.87,137.32c-1.58-11.64-3.01-21.83-4.28-30.83-4.6-32.64-7.37-52.34-7.37-72.75,0-26.71,8.71-51.4,24.53-69.55,17.2-19.72,41.74-30.59,69.11-30.59,35.76,0,56.71,15.47,67.99,28.46,15.22,17.52,22.94,41.27,22.94,70.59s-9.52,63.6-17.93,92.6l-1.55,5.35-30.35,104.59c-.94,3.27-1.88,6.55-2.8,9.79-10.13,35.44-18.88,66.05-34.29,90.03-19.33,30.09-47.47,45.34-83.64,45.34Z"/>
      <path class="cls-9" d="M2133.14,702.42c-46.66,0-82.53-24.69-89.36-61.46-3.24-16.28-3.54-30.38-.9-41.92,0-.03.01-.06.02-.09h-55.17c2.39,10.37,2.16,23.08-.74,41.19-.05.31-.11.62-.17.93-8.31,42.38-49.5,61.35-86.63,61.35-6.23,0-12.42-.62-18.4-1.22-.31-.03-.61-.07-.92-.11-35.42-4.78-53.51-23.2-62.45-37.81-15.82-25.87-16.59-61.12-2.2-101.93l71.48-203.08c18.5-53.43,48.18-108.03,127.88-108.03,35.93,0,64.09,10.92,86.06,33.37,20.74,21.19,32.49,49.61,41.26,74.62l70.98,203.18c14.92,42.34,14.61,76.84-.93,102.48-8.6,14.19-26.23,32.15-61.37,37.17-.28.04-.56.08-.84.11-5.26.58-11.23,1.25-17.61,1.25ZM2018.17,469.11l-2.73-8.54-2.67,8.54h5.4Z"/>
      <path class="cls-9" d="M2331.95,701.34c-22.42,0-43.31-7.59-58.83-21.37-16.5-14.66-25.59-34.93-25.59-57.09v-156.56c0-17.71,1.69-32.27,4.25-44.3-9.67,3.1-21.66,5.21-36.84,5.21-25.05,0-46.75-7.98-62.75-23.07-16.66-15.72-25.47-37.5-25.47-62.98,0-52.93,34.63-87.13,88.22-87.13h233.49c53.59,0,88.22,34.2,88.22,87.13,0,25.48-8.81,47.26-25.47,62.98-16,15.09-37.7,23.07-62.75,23.07-15.12,0-27.1-2.12-36.79-5.24,2.52,12.11,4.2,26.71,4.2,44.33v156.56c0,22.1-9.04,42.36-25.46,57.03-15.46,13.82-36.21,21.43-58.42,21.43Z"/>
      <path class="cls-9" d="M2677.57,700.25c-33.64,0-76.49-3.32-109.56-29.25-33.39-26.17-49.62-68.85-49.62-130.48,0-48.89,13.66-83.54,25.11-104,3.74-6.67,7.81-12.87,12.12-18.5-25.68-13.55-41.58-41.2-42.1-77,0-.13,0-2.02,0-2.02,0-50.03,33.38-84.96,81.17-84.96h194.48c26.23,0,47.02,6.97,61.79,20.71,15.38,14.3,23.17,34.64,23.17,60.47,0,41.35-22.5,69.68-60.21,78.05,4.1,2.19,7.9,4.74,11.37,7.65,14.59,12.25,22.3,29.82,22.3,50.81,0,17.47-5.74,35.66-19.69,49.01,10.97,4.37,20.62,10.54,28.69,18.42,17.15,16.76,26.21,40.08,26.21,67.46,0,30.03-9.67,53.54-28.74,69.87-18.67,15.99-44.68,23.76-79.52,23.76h-96.97ZM2683.44,542.04c7.11-3.73,14.03-7.09,20.79-10.09-6.95-1.65-13.89-3.41-20.79-5.17v15.26ZM2683.98,418.23c3.09-.8,6.18-1.6,9.29-2.39h-9.29v2.39Z"/>
      <path class="cls-9" d="M3160.79,701.34c-49.42,0-84.21-34.3-86.56-85.35-1.73-39.2-15.01-53.34-35.41-57.38v58.3c0,25.3-8,46.68-23.14,61.82-14.79,14.79-35.23,22.6-59.11,22.6-50.96,0-83.88-33.14-83.88-84.42v-76.38c0-40.81,6.59-73.38,20.16-99.57,4.47-8.63,9.71-16.52,15.7-23.63-24.44-13.56-39.69-40.31-41.25-75.51-.02-.4-.03-.79-.03-1.19v-1.63c0-23.65,7.83-45.23,22.05-60.76,14.93-16.31,36.12-25.29,59.66-25.29h138.14c46.76,0,84.18,11.63,111.25,34.58,30.01,25.44,45.23,62.63,45.23,110.52s-18.82,83.79-44.7,104.36c7.95,6.32,15.06,13.64,21.23,21.87,18.09,24.15,27.26,54.59,27.26,90.47,0,33.57-13.17,53.35-24.21,64.03-15.26,14.76-36.83,22.56-62.38,22.56ZM3080.61,439.85c8.97,0,13.29-1.83,14.43-2.92.88-.84,1.91-3.72,1.91-9.09,0-6.29-1.25-9.14-1.91-9.77-1.08-1.03-5.35-2.78-14.43-2.78h-44.51v24.55h44.51Z"/>
      <path class="cls-9" d="M3431.1,701.34c-22.22,0-42.96-7.61-58.42-21.43-16.42-14.68-25.46-34.93-25.46-57.03v-86.2c-16.11-30.77-37.17-53.05-57.59-74.62-19.82-20.95-38.55-40.75-50.32-65.95-13.95-28.89-16.65-60.01-7.4-85.4,7.94-21.79,24.04-38.66,46.58-48.8,12.57-5.83,25.41-8.78,38.14-8.78,37.56,0,70.75,25.91,86.61,67.63.05.14.11.28.16.42,6.12,16.92,8.78,36.66,11.36,55.75,2.35,17.39,4.78,35.38,9.47,46.68,2.09,5.03,3.79,6.69,4.27,7.08.19.16.63.52,2.6.52,2.53,0,4.19,0,7.34-7.57,4.65-11.21,6.96-29.12,9.19-46.45,2.47-19.17,5.02-38.98,11.17-56.01,20.18-55.48,59.12-67.12,88.23-67.12,13.08,0,25.41,2.64,36.65,7.84,33.61,15.03,52.11,44.14,52.11,82,0,16.81-4.33,34.37-12.89,52.18-11.92,25.55-30.79,45.79-50.76,67.22-19.96,21.42-40.57,43.53-57.16,73.7v85.9c0,44.73-36.06,78.46-83.88,78.46Z"/>
    </g>
    <text class="cls-4" transform="translate(1372.21 679.34)"><tspan class="cls-16" x="0" y="0">W</tspan><tspan class="cls-5" x="455.05" y="0">A</tspan><tspan class="cls-18" x="780.63" y="0">T</tspan><tspan class="cls-13" x="1159.84" y="0">E</tspan><tspan class="cls-18" x="1511.41" y="0">RY</tspan></text>
    <g>
      <path class="cls-19" d="M1431.39,547.28l-52.55-195.02c-1.62-5.96-2.17-11.92-2.17-17.88,0-34.13,23.29-53.63,57.42-53.63,17.33,0,40.09,7.58,48.76,40.09l48.76,178.23c8.67,30.88,16.25,42.26,29.79,42.26,2.17,0,4.88-.54,7.58-1.08,14.08-3.79,16.25-7.04,16.25-20.59,0-8.13-1.63-19.5-5.42-33.04l-34.67-131.64c-2.17-8.13-3.25-15.17-3.25-22.21,0-28.17,13-44.42,40.63-50.38,5.96-1.63,11.38-2.17,16.79-2.17,21.13,0,41.17,14.08,49.3,46.05l43.88,172.81c9.21,35.21,18.42,42.26,29.79,42.26,2.71,0,4.88-.54,7.58-1.08,9.75-2.71,14.63-8.13,14.63-16.25,0-.54.54-5.42-3.79-37.92-9.75-76.93-15.71-104.55-15.71-132.72,0-40.63,25.46-73.13,66.63-73.13s63.92,27.09,63.92,72.05c0,28.71-10.29,62.3-18.42,90.47l-30.34,104.55c-20.59,71.51-33.05,125.68-94.8,125.68-49.84,0-75.84-28.71-91.01-99.68h-3.79c-14.63,70.97-34.67,99.68-82.88,99.68-66.63,0-83.43-53.09-102.93-125.68Z"/>
      <path class="cls-19" d="M1837.69,567.33l71.51-203.15c19.5-56.34,44.42-89.93,102.39-89.93s83.43,37.38,101.85,89.93l70.97,203.15c20.04,56.88,8.67,96.97-40.63,104.01-4.88.54-9.75,1.08-14.63,1.08-33.05,0-58.51-15.71-62.84-39.55-2.71-13.54-2.71-23.84-1.08-30.88,3.25-14.63,6.5-21.13,4.88-27.63-1.08-3.79-3.79-5.42-8.67-5.42h-100.76c-9.21,0-10.29,8.13-7.58,16.25,1.63,3.79,2.71,9.75,4.33,16.79s1.08,17.34-1.08,30.88c-5.42,27.63-34.13,39.55-60.13,39.55-4.88,0-10.29-.54-15.71-1.08-48.21-6.5-62.84-47.13-42.8-104.01ZM2051.13,493.11l-28.17-88.3c-2.17-7.04-4.33-11.38-11.38-11.38s-9.75,4.33-11.92,11.38l-27.63,88.3h79.09Z"/>
      <path class="cls-19" d="M2149.72,338.17c0-36.3,20.59-60.13,61.22-60.13h233.49c40.63,0,61.22,23.84,61.22,60.13s-24.92,59.05-61.22,59.05c-50.38,0-50.92-27.63-77.47-27.63l-4.88,9.75c4.33,9.75,22.75,27.63,22.75,83.97v156.56c0,29.8-24.92,51.46-56.88,51.46s-57.42-21.67-57.42-51.46v-156.56c0-56.34,18.96-73.68,23.29-83.97l-5.42-9.75c-27.09,0-26.54,27.63-77.47,27.63-36.3,0-61.22-22.21-61.22-59.05Z"/>
      <path class="cls-19" d="M2673.57,670.25c-71.51,0-132.18-18.42-132.18-132.72,0-76.38,37.38-122.43,61.22-130.02l-2.71-10.29h-9.21c-33.04,0-53.63-22.75-54.17-59.59v-1.63c0-34.67,21.13-57.96,54.17-57.96h194.48c38.46,0,57.97,17.88,57.97,54.17,0,32.5-18.42,53.63-57.97,53.63h-112.14c-13.54,0-20.04,7.58-20.04,23.29v40.63c36.3-8.13,77.47-22.21,112.68-22.21s50.92,15.71,50.92,41.17-16.79,41.71-50.92,42.26h-3.25c-33.05,0-73.68-13.54-109.97-21.67v70.97c0,13.54,6.5,15.71,10.83,15.71,3.25,0,7.58-1.62,13-4.33,36.3-21.13,70.97-34.67,104.01-34.67,47.13,0,71.51,27.09,71.51,66.63,0,42.8-24.38,66.63-81.26,66.63h-96.97Z"/>
      <path class="cls-19" d="M3097.2,611.75c-2.71-61.22-32.5-84.51-78.55-84.51h-10.83v86.68c0,37.38-22.21,57.42-55.26,57.42-35.21,0-56.88-20.04-56.88-57.42v-76.38c0-76.38,25.46-112.68,60.67-130.02l-2.71-10.29h-8.67c-33.05,0-53.09-22.75-54.71-59.59v-1.63c0-34.67,21.67-59.05,54.71-59.05h138.14c77.47,0,129.47,35.75,129.47,118.1,0,63.92-37.38,95.35-73.68,99.68v7.04c44.96,10.83,77.47,47.67,77.47,109.97,0,39.55-22.75,59.59-59.59,59.59s-57.96-24.38-59.59-59.59ZM3005.1,444.35c0,15.71,4.88,19.5,20.58,19.5h50.92c30.34,0,43.34-14.63,43.34-39s-13-39.55-43.34-39.55h-50.92c-15.71,0-20.58,2.17-20.58,18.96v40.09Z"/>
      <path class="cls-19" d="M3285.71,283.46c39.55-18.42,73.68,5.42,88.3,43.88,16.25,44.96,5.42,127.85,53.09,127.85s36.84-82.88,53.09-127.85c10.83-29.8,29.79-49.3,62.84-49.3,8.67,0,17.34,1.62,25.46,5.42,24.38,10.83,36.3,30.88,36.3,57.42,0,12.46-3.25,26-10.29,40.63-21.67,46.59-75.3,77.47-110.51,145.73v92.64c0,29.8-24.38,51.46-56.88,51.46s-56.88-21.67-56.88-51.46v-92.64c-33.59-68.8-88.84-99.14-110.51-145.73-17.33-35.75-15.17-79.63,26-98.05Z"/>
    </g>
  </g>
</svg>