<?xml version="1.0" encoding="UTF-8"?>
<svg id="Layer_1" data-name="Layer 1" xmlns="http://www.w3.org/2000/svg" xmlns:xlink="http://www.w3.org/1999/xlink" viewBox="0 0 1949.14 1677.07">
  <defs>
    <style>
      .cls-1 {
        fill: #f75459;
      }

      .cls-2 {
        fill: #c6b78a;
      }

      .cls-3, .cls-4 {
        fill: #39b54a;
      }

      .cls-5 {
        fill: #6e2830;
      }

      .cls-6 {
        letter-spacing: -.11em;
      }

      .cls-7 {
        letter-spacing: .03em;
      }

      .cls-8 {
        fill: #8d232f;
      }

      .cls-9 {
        fill: #ffb7bb;
      }

      .cls-10 {
        fill: #fff;
      }

      .cls-11 {
        letter-spacing: -.09em;
      }

      .cls-12 {
        fill: #a5cf87;
      }

      .cls-13 {
        fill: #d0ebc0;
      }

      .cls-14 {
        letter-spacing: .03em;
      }

      .cls-15 {
        fill: #f07d84;
      }

      .cls-4 {
        font-family: DFVN-BagelFatOne-Regular, 'DFVN Bagel Fat One';
        font-size: 457.61px;
      }

      .cls-16 {
        fill: #52a138;
      }

      .cls-17 {
        fill: #73bd4a;
      }

      .cls-18 {
        fill: #dd282d;
      }

      .cls-19 {
        fill: url(#linear-gradient);
      }
    </style>
    <linearGradient id="linear-gradient" x1="964.07" y1="1518.5" x2="964.07" y2="1261.37" gradientUnits="userSpaceOnUse">
      <stop offset=".17" stop-color="#4ac73f"/>
      <stop offset="1" stop-color="#d0ebc0"/>
    </linearGradient>
  </defs>
  <g>
    <g>
      <path class="cls-17" d="M1601.82,785.34c5.61,7.7,18.65,35.83,22.36,47.34,3.77,11.7,1.93,23.26-7.53,32.26l-10.02,9.53c-4.17,3.97-38.6,33.06-44.28,37.56l-25.27,19.99c-57.39,45.39-138.6,82.58-210.11,98.97l-13.36,3.06-14.52,3.71c-7.4,1.89-14.18,4.19-21.93,4.46-5.66.19-10.7,2.44-16.15,3.28l-34.21,5.28-13.4,3.89-76.43,11-15.2.73-23,2.56c-8.05.9-16.03.87-24.13,2.76-4.06.94-7.67.27-11.62,0-6.23-.43-12.32,1.83-18.56,1.99l-29.18.77-32.54.95c-14.2.41-27.89,1-42.16.94l-70.99-.31-11.75-.75-22.01-.97c-14.85-.65-28.99-1.44-43.78-2.6l-30.08-2.36-48.47-4.68-46.1-5.75c-15.48-1.93-30.04-4.8-45.24-7.61l-34.2-6.33-57.89-12.41c-20.9-4.48-40.14-9.65-60.78-15.44-47.23-13.23-92.77-30.08-135.87-53.49-7.69-4.18-12.02-12.24-9.61-21.33,3.71-14,10.53-26.85,15.34-40.5,2.42-6.87,4.94-12.2,8.79-17.49,1.45-2.11,3-2.62,4.66-1.53,40.02,19.99,83.15,35.82,126.88,47.15,53.54,13.1,108.21,25.52,164.02,37.23l108.3,17.23c76.9,7.89,151.76,10.04,231.12,9.24,17.95-.18,38.09-1.21,55.85-2.31,61.84-3.83,116.13-10.29,178.26-19.65,46.92-7.07,86.19-17.02,131.81-28.75.91-.23,1.9-.17,2.92-.07s2.1.37,3.13.67c6.24-1.62,12.4-3.81,17.8-7.41-.51-3.56,4.04-4.38,5.35-1,1.24,1.38,1.33,2.44-.19,3.36,12.15,25.52,42.99,17.17,22.83-9.72l.57-2.66c-1.48-1.8-1.49-3.13.78-2.63l4.86-2.15,1.82-3.29c67.58-35.6,132.16-83.68,189.04-134.31.99-.97,2.35-.44,4.08,1.59Z"/>
      <g>
        <path class="cls-13" d="M1027.4,886.91c6.63-1.34,13.5-.95,20.72-1.41l19.5-1.22,28.54-2.56,32.8-2.98,99.88-14.3c17.49-2.51,33.53-7.65,50.61-11.43,13.4-2.97,25.85-7.19,38.41-11.06l8.35-1.11c15.31,31.39,31.08,62.76,48.3,93.39-5.66,4.78-12.2,7.89-19.64,9.33-10.77,3.19-21.55,6.64-33.01,9.35l-42.96,10.15-32.3,5.86c-34.04,6.17-68.2,11.51-102.71,15.44l-39.32,4.48c-15.22,1.73-29.67,3.22-45.07,3.46-7.55.12-15,1.22-22.51,1.45l-34.36,1.06c-7.34.23-14.38,1.05-21.86,1.26-27.51.77-54.65.84-82.12-.12l-29.18-1.02-55.65-3.04-47.21-3.46c-15.42-1.13-29.84-4.29-45-6.66l-44.03-6.88c-23.31-3.64-45.69-6.73-68.66-11.99-22.76-5.21-44.58-10.49-67.33-15.84l-17.81-4.19-44.89-10.65-27.12-7.45c-10.97-3.01-21.16-6.91-31.78-10.85l-29.56-10.97-33.18-15.13c-3.27-1.49-5.9-3.85-9.33-3.46,5.67-7.8,20.09-50.97,26.89-66.24,3.88-8.72,7.85-16.87,9.9-25.76,2.58-2.38,6.05-2.67,10.4-.86,66.7,30.87,138.69,50.73,209.53,66.09,52.32,11.35,105.68,18.15,158.47,22.68,86.3,7.4,175.64,9.02,264.28,6.65Z"/>
        <path class="cls-13" d="M1601.82,785.34c-2.66-1.46-3.81,1.99-5.84,3.44-7.62,5.45-13.65,11.39-20.67,17.56-29.28,25.77-60.58,47.72-92.75,69.81-17.48,12.01-33.91,23.25-52.66,32.89-8.01,4.12-15.06,9.14-23.04,12.31l-6.55,3.16-1.89-2.01c-13.93-30.25-29.46-60.09-46.61-89.53-1.85-2.81-1.67-4.77.55-5.86,1.23-1.89,2.9-4.23,5.37-5.57,14.68-7.97,27.7-17.2,41.89-26.14,19.26-12.14,36.28-26.17,53.84-40.57,8.89-7.29,17.22-14.03,25.52-21.92l21.31-20.26c5.95-5.66,11.77-11.06,17.35-17.13,7.83-8.5,13.45-15.85,24.13-19.53,1.61,3.8,2.85,8.13,5.31,12.17,13.1,21.52,26.12,42.58,36.38,65.67,5.2,11.7,11.16,21.64,18.34,31.49Z"/>
      </g>
      <path class="cls-12" d="M1406.87,921.35c-2.05.81-4.3,3.07-5.64,4.78l-2.13,3-17.48,7.09-3.6-1.07c-1.08.4-2.68-.21-4.09.83-5.79,4.24-12.3,7.16-19.05,7.57-5.07,1.5,21.07-7.74,17.58-8.73-10.66-17.4-19.22-35.11-28.4-53.35-6.68-13.27-13.93-25.42-19.31-39.17-2.85-.54-4.8-.32-6.88-.36-4.18,1.29,15.83-5.09,8.18-3.36l1.09-.02,11.68-4.74c4.04-1.42,7.73-4.16,11.44-5.79l2.11-.92c.42,3.59,2.54,6.86,4.68,10.29,9.03,14.44,16.7,28.85,24.12,44.18l19.91,41.12,5.78-1.36Z"/>
      <path class="cls-16" d="M1401.24,926.13c4.64,4.18,8.23,11.5,8.53,18.19.36,7.93-7.18,12.94-14.43,11.97-10.7-1.43-14.84-10.78-20.77-18.27,1.55-1.24,2.67-1.82,3.46-2.88,7.8-2.89,15.15-6.99,23.21-9.02Z"/>
    </g>
    <g>
      <g>
        <path class="cls-1" d="M1541.8,676c-.87,2.58-3.07,4.5-6.58,5.76l-5.38,4.24c-49.84,52.88-106.75,101.28-171.4,137.81-1.78,2.15-3.8,3.25-6.05,3.3.41,3.11.04,3.26-2.11.92-2.87-3.16-5.21-7.02-7.04-11.59-27.2-59.88-56.53-117.99-87.55-174.3-8.65-21.33-38.07-14.19-27.61,8.64,30.48,61.82,61.81,123.32,93.98,184.52,2.08.71,3.41,1.8,4,3.27,5.3-.9,1.39,4.6-2.43,2.55-3.69-.14-5.57.64-5.64,2.34l-.11-1.54c-.63.81-1.29,1.59-2.05,2.25s-1.46,1.24-2.28,1.52c-6.68,2.28-13.53,4.28-20.33,6.19-52.87,14.86-110.09,22.41-163.96,29.13-32.75,3.34-65.75,5.92-99.02,7.74l-2.83-1.86c-78.11,2.44-156.73.84-234.37-4.19-98.77-6.4-194.68-23.51-290.79-50.87-36.26-10.32-71.55-23.47-105.52-39.78-3.6-1.1-7.16-1.83-10.71-2.19.03-.34-.18-.71-.08-1.03l.93-2.38c.3-5.86,4.39-10.61,6.55-16.4,9.09-24.43,19.97-47.27,29.98-71.38l20.33-48.99c7.22-17.39,13.23-34.38,21.37-51.34,5.14-10.72,8.83-21.54,14.5-31.85,5.68-10.33,9.46-20.81,14.46-31.56l28.55-61.35,25.27-55.65,18.79-40.13,32.45-67.52,8.51-16.17c12.33-23.43,25.1-46.01,37.23-69.55l11.49-22.28,37.61-66.28,29.53-51.4c18.36-31.95,52.56-70.89,90.43-79.88,8.19-1.94,33.69-4.96,41.48-4.75l13.4.36,24.67.3,49.59.2,36.92,2.52c11.45.78,22.02,3.8,33.32,5.86,20.64,3.76,46.3,15.94,62.08,28.95l14.58,12.02,52.95,51.93c8.47,8.3,15.13,16.98,22.6,25.88l14.31,17.04c9.75,11.62,18.41,23.38,28.56,34.64,6.78,7.52,12.05,15.64,18.27,23.26l16.65,20.38,28.76,34.78c22.11,26.74,45.98,62.38,66.31,91.64l25.59,36.85,28.39,40.73c13.25,19.01,26.02,36.95,37.94,56.82l25.53,42.57,17.6,30.79,33.31,55.46c11.15,18.56,23.05,35.71,32.6,55.08,1.41,2.86,1.49,5.68,2.45,7.92Z"/>
        <g>
          <path class="cls-2" d="M1027.4,886.91c-11.26,2.28-23.06.9-35.34,1.6-37.13,2.11-69.11-.01-105.97-1.13l-35.85-1.09-17.97-.72-20.77-1.22-21.9-1.15-13.85-1.19-12.71-1.04-47.27-4.48-41.53-5.83-50.23-8.43c-15.55-2.61-30.06-6.19-45.28-10l-68.36-17.09c-39.68-9.92-77.16-24.53-113.99-41.89-4.17-1.96-8.05-3.18-11.67-.92.21-.92.65-1.77,1.3-2.46,4.99-.5,9.72.05,14.87,2.51,58.59,28.09,103.84,39.77,166.25,55.13l36.91,9.09,63.31,11.47c17.53,3.18,34.24,5.53,51.87,7.22l47.29,4.54,12.71,1.01,13.85,1.19,21.9,1.15c7.48.39,14.5.92,21.93,1.22l17.96.72,35.86,1.1,42.51,1.15c16.96.46,33.88.27,50.84.06l43.32-.55Z"/>
          <path class="cls-2" d="M385.94,788.86c.21-.73-.15-2.36.93-2.38-.04.83.23,2.27-.93,2.38Z"/>
          <g>
            <path class="cls-10" d="M708.05,314.91c-1.43,2.6-1.78,5.11-4.17,6.03-2.84,1.09-5.55.76-8.47-.67l-37.33-18.31c-3.64-1.78-6.36-5.8-4.33-10.22,13.77-29.88,29.51-57.85,46.05-86.33,14.41-24.81,27.54-49.25,43.56-73.14,2.75-4.1,9.34-2,12.74-.04,11.9,6.87,23.12,12.44,35.68,17.95,2.3,1.01,7.44,3.33,6.89,6.08-1.82,9.11-8.68,15.17-13.2,22.8l-36.91,62.26-40.51,73.59Z"/>
            <path class="cls-18" d="M1205.31,598.36c-6.37-.88-12.17-5.96-15.45-11.29-14.22-23.14-25.21-47.32-38.63-71.08l-32.52-57.54-26.63-44.43c-1.59-2.65-2.73-7.11-1.98-10.3,1.55-6.6,7.3-12.7,14.01-14.38,14.63-3.65,24.84,18.8,31.3,29.71l26.05,44.03,21.66,38.53c13.3,23.67,26.88,46.36,38.41,70.91,2.74,5.84,2.5,12.35-1.04,17.65-2.83,4.23-7.63,9.23-15.18,8.19Z"/>
            <path class="cls-18" d="M1007.07,227.21c-2.4,4.86-6.62,7.47-10.44,7.98-13.52,1.8-19.32-11.48-27.01-23.05l-26.68-40.13c-9.79-14.73-20.29-27.81-31.3-41.56l-23.07-28.8c-9.5-11.86-19.61-22.69-28.34-35.14-4.61-6.58-1.37-16.08,4.11-20.14,6.7-4.97,14.37-4.71,21.07.75,8.48,6.91,15.63,14.93,22.82,23.32l28.26,32.93c11.95,13.92,21.64,28.84,32.38,43.68,7.66,10.58,32.19,49.83,37.52,60.76,3.03,6.22,4.09,12.51.68,19.39Z"/>
            <path class="cls-10" d="M657.31,417.02c-1.02,2.35-4.36,8.57-6.97,7.19-14.63-7.77-27.72-16.66-42.63-23.28-3.32-1.47-4.73-5.15-3.46-8.52,4.95-13.18,11.53-24.97,17.7-37.6,2.72-5.57,4.12-12.29,9.15-16.37,2.38-1.93,7.35.32,9.89,1.55l29.42,14.23c3.83,1.85,9.12,3.23,11.27,7.13,2.2,3.99-.33,9.11-2.43,12.7-8.24,14.07-15.22,27.46-21.94,42.97Z"/>
            <path class="cls-18" d="M1093.13,353.55c-.65,7.84-7.45,14.21-14.05,16.16-11.94,3.53-25.75-22.54-30.05-30.74-7.53-14.4-15.19-28.06-23.85-41.77-3.36-5.33-6.86-10.88-8.15-16.99-1.58-7.53,2.07-13.69,8.19-17.23,4.5-2.61,9.91-4.35,14.48-.97,4.55,3.37,9.01,7.08,11.98,12.21l35.6,61.39c3.05,5.26,6.44,10.82,5.85,17.95Z"/>
            <path class="cls-8" d="M1267.98,399.24c3.61,6.03,3.92,12.95,1.09,20.15-3.48,8.84-20.91,18.75-33.62,9-11.72-9-18.12-21.99-23.27-35.64-6.89-18.27.39-36.34,11.19-33.97,18.58,4.07,35.27,24.87,44.61,40.47Z"/>
            <path class="cls-8" d="M1011.21,495.08c-20.08,5.01-32.27-19.99-30.63-36.55,1.13-11.42,1.22-21.96,5.23-33.31,1.68-4.74,12.44-10.74,17.29-6.33,12.63,11.47,21.08,27.97,25.1,44.4,2.69,10.99-2.36,28.15-16.99,31.8Z"/>
            <path class="cls-8" d="M711.49,524.47c-8.32,10.28-23.89,7.33-31.18-2.28-6.54-8.63-8.21-19.09-6.18-29.74.45-10.9,2.93-20.76,5.81-31.38,1.83-6.76,9.64-13.22,16.96-10.59,19.79,7.09,26.7,59.04,14.58,74Z"/>
            <path class="cls-8" d="M864.24,311.23c-5.82,6.94-13.94,9.19-21.59,4.38-8.3-5.22-14.88-14.77-15.82-25.22-1.47-16.26,1.65-33.37,10.1-47.19,4.17-6.82,14.06-3.3,18.23,1.14,15.11,16.07,25.36,47.45,9.07,66.89Z"/>
            <path class="cls-8" d="M1109.89,219.4c-3.41,5.21-10.38,6.98-15.75,6.17-16.87-2.55-21.06-22.95-25.98-38.29-2.37-7.38-3.7-23.13,3.07-27.89,15.82-11.14,29.96,13.4,37.06,25.99,5.91,10.49,8.89,22.88,1.61,34.02Z"/>
            <path class="cls-5" d="M789.76,646.26c-6.02,7.65-14.91,9.86-22.87,4.97-6.22-3.82-12.6-10.04-14.41-17.7-2.32-9.86.94-21.38,7.3-28.72,8.33-9.61,21.65-9.45,29.73-.32,5.18,5.85,9.74,13.36,8.78,21.54-.83,7.13-4.05,14.56-8.53,20.23Z"/>
            <path class="cls-5" d="M958.17,656.9c-13.88,3.72-26.47-6.42-27.54-20.64-1.07-14.12,12.91-38.69,27.22-30.36,8.11,4.72,13.85,13.03,14.26,22.47.5,11.55-3.66,22.28-13.94,28.53Z"/>
            <path class="cls-5" d="M890.57,668.15c5.41,2.58,4.92,10.58.66,14.92-19.96,20.37-48.26,16.7-64.81-3.44-2.18-2.65-1.62-8.06.1-10.55,2.24-3.25,7.61-3.41,10.72-1.46,4.2,2.64,7.24,8.14,12.67,8.97,8.75,1.34,19.09.38,26.92-3.52,4.22-2.1,7.47-7.91,13.74-4.93Z"/>
            <g>
              <circle class="cls-15" cx="1060.75" cy="698.8" r="88.41"/>
              <path class="cls-9" d="M1104.26,729.3c-5.86,6.14-15.32,2.82-19.28-3.76-5.52-9.16-8.84-18.81-13.06-28.64l-9.28-21.56c-2.69-6.25-7.47-19.56,1.41-22.19,6.76-2.01,13.41.07,16.31,6.59l9.52,21.4c4.58,10.3,8.14,20.3,14.23,30.07,3.16,5.07,5.06,12.94.15,18.09Z"/>
              <path class="cls-9" d="M1052.04,716.31c1.73,4.56-2.06,10.35-5.92,11.29-6.18,1.51-11.62-.09-14.47-5.56-4.43-8.49-18.72-37.47-15.22-45.66,2.4-5.61,9.43-7.27,14.59-5.6,4.9,4.11,7.23,9.28,9.41,15.03l11.6,30.51Z"/>
            </g>
            <g>
              <circle class="cls-15" cx="660.45" cy="682.22" r="90.87"/>
              <path class="cls-9" d="M615.3,700.79c-2.09,4.69-3.39,10.03-8.83,12.39-4.7,2.04-10.14-.89-13.23-4.15-3.77-3.98-3.45-10.03-1.05-15.25l11.16-24.31c4.07-8.87,9.24-16.75,14.04-25.1,1.89-3.3,4.64-5.59,7.36-6.18,5.69-1.24,13.45,2.49,15.46,7.87s-7.47,19-10.61,25.24l-10.09,20.07-4.2,9.42Z"/>
              <path class="cls-9" d="M671.1,706.56c-4.81,2.05-9.32-1.14-11.6-3.97-6.01-7.45.29-19.96,3.89-28.49,2.33-5.52,4.3-12.03,10.24-15.01,4.66-2.34,10.77,1.03,13.22,4.57,3.03,4.39,2.3,9.85.34,14.66l-7.05,17.28c-1.69,4.15-4.14,8.87-9.03,10.95Z"/>
            </g>
          </g>
        </g>
      </g>
      <g>
        <path class="cls-18" d="M1350.27,828.04c.01,3.84-8.48,8.67-11.44,5.79l-11.68,4.74-1.09.02c-2.06.04-4.58.14-6.01-2.16-9.71-15.65-16.8-32.09-25.31-48.46l-20.54-39.52-30.78-62.48c-6.46-13.11-13.78-24.92-19.24-38.47-3.02-7.49,1.39-16.94,8.94-19.52,17.46-5.98,24.53,13.33,31.59,26.07l12.38,22.33,33.43,65.62c8.25,16.2,15.58,31.87,23.42,48.27,5.19,10.86,9.02,21.77,15.13,32.13,1.15,1.95,1.91,3.74,1.2,5.63Z"/>
        <path class="cls-1" d="M1338.83,833.82c-3.09,2.7-7.64,4.66-11.68,4.74,3.33-2.66,7.75-3.36,11.68-4.74Z"/>
      </g>
    </g>
  </g>
  <g>
    <g>
      <path class="cls-3" d="M320.26,1612.86c-29.72,0-53.81-9.9-71.59-29.41-1.92-2.11-3.77-4.33-5.56-6.66-1.26,1.82-2.55,3.55-3.89,5.22-16.65,20.76-39.23,30.86-69.05,30.86-36.01,0-64.05-14.6-83.33-43.39-15.09-22.54-23.36-50.62-32.59-84.99l-44.38-164.72c-1.92-7.03-2.86-14.55-2.86-22.91,0-44.34,32.28-75.3,78.51-75.3,14.7,0,28.52,4.04,39.98,11.67,8.38,5.59,19.02,15.55,26.16,32.57,2.45-6.4,5.77-12.22,9.97-17.43,9.87-12.27,24.07-20.54,42.19-24.59,6.87-1.8,13.84-2.67,21.28-2.67,26.63,0,59.19,16.16,70.72,61.51l5.72,22.53c1.51-21.32,9.27-40.88,22.22-55.73,15.91-18.25,38.57-28.3,63.8-28.3,32.91,0,52.35,14.42,62.86,26.51,13.83,15.92,21.14,38.17,21.14,64.35s-8.19,55.26-15.42,80.21l-1.31,4.53-25.64,88.37c-.79,2.74-1.58,5.51-2.36,8.24-8.71,30.49-16.24,56.81-29.83,77.96-17.74,27.61-43.55,41.6-76.71,41.6Z"/>
      <path class="cls-3" d="M672.62,1612.4c-42.98,0-76.11-23.2-82.55-57.76-2.17-10.94-2.86-20.87-2.07-29.64h-29.89c.62,7.87,0,17.11-1.85,28.74-.06.34-.12.69-.18,1.03-6.76,34.47-39,57.63-80.23,57.63-5.63,0-11.28-.57-16.26-1.06-.34-.03-.68-.07-1.02-.12-32.72-4.41-49.56-21.64-57.93-35.32-10.14-16.57-18.8-46.02-2.51-92.25l60.38-171.52c10.87-31.38,22.74-52.19,38.49-67.47,19.84-19.25,44.8-28.6,76.32-28.6s58.13,10.21,77.84,30.35c18.5,18.9,28.83,43.81,36.5,65.69l59.96,171.63c13.35,37.88,12.88,69.08-1.42,92.66-8.07,13.31-24.5,30.15-56.97,34.79-.31.04-.62.08-.93.12-4.63.51-9.88,1.1-15.67,1.1Z"/>
      <path class="cls-3" d="M840.57,1611.48c-20.7,0-40.05-7.06-54.47-19.87-15.5-13.77-24.04-32.8-24.04-53.6v-132.25c0-10.4.69-19.62,1.84-27.79-6.46,1.22-13.8,1.96-22.18,1.96-48.11,0-81.71-32.85-81.71-79.88,0-23.4,7.43-43.39,21.5-57.83,10.21-10.48,28.94-22.97,60.21-22.97h197.23c31.28,0,50.01,12.49,60.21,22.97,14.06,14.44,21.5,34.43,21.5,57.83,0,47.03-33.6,79.88-81.71,79.88-8.34,0-15.67-.74-22.12-1.97,1.12,8.17,1.79,17.4,1.79,27.8v132.25c0,20.74-8.49,39.76-23.91,53.54-14.38,12.85-33.61,19.93-54.14,19.93Z"/>
      <path class="cls-3" d="M1132.52,1610.57c-29.57,0-67.31-2.98-96.99-26.24-30.06-23.56-44.67-61.46-44.67-115.88,0-41.97,11.75-76.85,28.27-101.37-4.38-3-8.41-6.51-12.02-10.48-12.99-14.31-20.04-33.87-20.37-56.56,0-.15,0-1.81,0-1.81,0-22.13,7.06-41.45,20.41-55.86,13.81-14.9,33.47-23.11,55.35-23.11h164.28c24.04,0,43.25,6.53,57.1,19.42,14.51,13.5,21.87,32.45,21.87,56.34,0,22.15-7.25,40.96-20.97,54.39-4.85,4.75-11.74,9.95-21.17,13.98,12.73,11.55,19.71,28.13,19.71,46.95,0,17.45-5.5,30.09-12.09,38.96,7.41,4.01,13.17,8.59,17.53,12.86,15.9,15.54,24.3,37.02,24.3,62.12,0,34.34-14.57,54.02-26.79,64.49-17.13,14.67-40.63,21.8-71.85,21.8h-81.91Z"/>
      <path class="cls-3" d="M1540.7,1611.48c-23.1,0-43.05-8.01-57.71-23.15-13.75-14.21-21.57-33.51-22.6-55.8-1.04-23.38-6.96-34.06-15.54-38.89v39.34c0,46.96-30.81,78.51-76.68,78.51-22.83,0-42.28-7.28-56.24-21.05-9.95-9.81-21.8-27.74-21.8-57.45v-64.52c0-35.65,5.83-64.25,17.83-87.41,2.73-5.27,5.78-10.24,9.14-14.89-3.81-2.78-7.35-5.97-10.61-9.55-12.69-13.98-19.93-33.24-20.92-55.68-.02-.44-.03-.88-.03-1.32v-1.37c0-46.29,32.05-79.88,76.22-79.88h116.69c41.25,0,74.43,10.4,98.62,30.91,18.59,15.76,40.75,45.7,40.75,98.85,0,31.93-9.24,59.72-26.73,80.37-2.3,2.72-4.73,5.3-7.28,7.72,4.63,4.33,8.89,9.08,12.75,14.22,16.23,21.67,24.46,48.84,24.46,80.74,0,48.8-31.53,80.34-80.34,80.34ZM1472.97,1376.22c3.2,0,5.26-.3,6.49-.58.07-.59.12-1.37.12-2.36,0-1.22-.07-2.17-.15-2.86-1.26-.26-3.32-.54-6.46-.54h-30.4v6.35h30.4Z"/>
      <path class="cls-3" d="M1769.04,1611.48c-20.54,0-39.77-7.08-54.14-19.93-15.42-13.78-23.91-32.8-23.91-53.54v-71.03c-13.06-24.34-30.13-42.39-46.68-59.88-17.14-18.12-33.34-35.25-43.78-57.57-12.61-26.13-14.98-54.43-6.51-77.68,7.38-20.26,22.29-35.92,43.12-45.3,11.57-5.35,23.41-8.07,35.21-8.07,34.79,0,65.4,23.67,79.88,61.76.06.15.12.31.17.47,5.43,15.01,7.73,32.07,9.96,48.57,1.45,10.76,2.83,20.92,4.89,29.27.7,2.83,1.38,5.03,1.99,6.71.6-1.67,1.26-3.84,1.94-6.65,2.01-8.29,3.31-18.38,4.68-29.06,2.13-16.57,4.34-33.71,9.81-48.84,6.66-18.3,16.21-32.76,28.41-43.02,14.54-12.23,32.33-18.42,52.89-18.42,12.08,0,23.5,2.45,33.93,7.27,30.66,13.73,48.23,41.35,48.23,75.81,0,15.28-3.9,31.14-11.58,47.16-10.55,22.59-26.86,40.09-44.11,58.6-16.2,17.38-32.9,35.3-46.36,59.22v70.69c0,20.75-8.4,39.74-23.66,53.47-14.33,12.9-33.65,20-54.39,20Z"/>
    </g>
    <g>
      <path class="cls-10" d="M310.26,1598.86c-28.84,0-52.18-9.57-69.38-28.43-2.8-3.07-5.45-6.39-7.95-9.97-14.51,23-36.66,38.4-72.77,38.4s-62.14-14.15-80.84-42.06c-14.84-22.16-23.02-50-32.18-84.1L2.76,1307.97c-1.85-6.78-2.76-14.04-2.76-22.12,0-21.76,7.72-40.25,22.31-53.47,13.6-12.32,31.99-18.83,53.19-18.83,32.05,0,56.63,18.86,66.34,50.66,6.09-25.26,24.26-42.19,52.66-48.52,6.63-1.74,13.37-2.59,20.57-2.59,25.5,0,56.71,15.56,67.81,59.24l12.17,47.92c-.53-6.36-.81-12.33-.81-18.39,0-23.57,7.72-45.41,21.75-61.5,15.33-17.59,37.19-27.28,61.54-27.28,31.78,0,50.49,13.86,60.59,25.48,13.35,15.36,20.4,36.94,20.4,62.38s-8.13,54.62-15.31,79.38l-26.95,92.89c-.79,2.75-1.58,5.52-2.36,8.25-8.65,30.26-16.12,56.39-29.46,77.16-17.15,26.69-42.11,40.23-74.18,40.23Z"/>
      <path class="cls-10" d="M662.62,1598.4c-41.49,0-73.44-22.22-79.6-55.32-2.39-12.07-2.95-22.83-1.65-32.08h-36.58c1.09,8.3.6,18.21-1.49,31.27-.05.31-.11.62-.17.93-6.47,33.02-37.54,55.21-77.29,55.21-5.48,0-11.05-.56-15.96-1.05-.31-.03-.61-.07-.92-.11-31.55-4.25-47.75-20.79-55.77-33.91-9.79-16.01-18.13-44.57-2.24-89.69l60.38-171.52c10.71-30.92,22.35-51.38,37.75-66.32,19.25-18.68,43.53-27.76,74.23-27.76s56.57,9.91,75.7,29.45c18.09,18.48,28.26,43.02,35.81,64.58l59.96,171.63c13.04,36.99,12.66,67.34-1.16,90.12-7.74,12.76-23.53,28.9-54.83,33.37-.28.04-.56.08-.83.11-4.55.51-9.71,1.08-15.34,1.08Z"/>
      <path class="cls-10" d="M830.57,1597.48c-19.97,0-38.6-6.79-52.48-19.11-14.85-13.19-23.03-31.43-23.03-51.36v-132.25c0-12.12.92-22.55,2.4-31.54-7.26,1.7-15.69,2.71-25.74,2.71-46.34,0-78.71-31.61-78.71-76.88s30.9-77.79,78.71-77.79h197.23c47.81,0,78.71,30.54,78.71,77.79s-32.37,76.88-78.71,76.88c-10.04,0-18.5-1.06-25.72-2.76,1.47,9.05,2.39,19.5,2.39,31.59v132.25c0,19.88-8.13,38.1-22.91,51.3-13.83,12.36-32.35,19.17-52.14,19.17Z"/>
      <path class="cls-10" d="M1122.52,1596.57c-29.09,0-66.19-2.91-95.14-25.6-29.29-22.95-43.52-60.08-43.52-113.52,0-42.79,12.33-78.04,29.38-102.16-20.52-12.8-33.05-36.35-33.49-66.31,0-.13,0-1.77,0-1.77,0-21.36,6.78-39.97,19.61-53.82,13.23-14.28,32.11-22.15,53.15-22.15h164.28c47.57,0,75.96,27.2,75.96,72.76,0,21.33-6.94,39.39-20.07,52.24-6.94,6.79-15.24,11.88-24.83,15.23.73.56,1.44,1.13,2.14,1.72,13.3,11.17,20.33,27.12,20.33,46.13s-6.51,31.44-13.71,39.95c7.51,3.64,14.23,8.33,20.05,14.01,15.31,14.96,23.4,35.7,23.4,59.98,0,26.65-8.66,47.58-25.74,62.21-16.56,14.18-39.43,21.08-69.9,21.08h-81.91ZM1131.67,1451.88c.29-.14.57-.28.86-.42-.28-.07-.57-.14-.86-.22v.64Z"/>
      <path class="cls-10" d="M1530.7,1597.48c-44.14,0-75.21-30.58-77.31-76.09-1.27-28.68-9.93-39.46-21.53-43.42v44c0,45.16-29.61,75.51-73.68,75.51s-75.05-29.64-75.05-75.51v-64.52c0-35.16,5.72-63.3,17.5-86.04,3.15-6.08,6.73-11.74,10.74-16.96-4.6-3.04-8.83-6.67-12.65-10.87-12.22-13.46-19.18-32.06-20.14-53.8-.02-.4-.03-.79-.03-1.19v-1.37c0-44.55,30.79-76.88,73.22-76.88h116.69c40.52,0,73.04,10.16,96.68,30.2,18.1,15.35,39.69,44.56,39.69,96.56,0,31.21-9,58.33-26.02,78.43-2.94,3.47-6.1,6.71-9.44,9.68,5.44,4.78,10.39,10.12,14.79,16,15.84,21.14,23.87,47.7,23.87,78.94s-11.82,47.52-21.73,57.1c-13.69,13.24-32.92,20.23-55.61,20.23ZM1462.97,1368.22c5.54,0,8.18-.87,9.09-1.26.2-.64.52-2.07.52-4.69,0-2.9-.34-4.51-.56-5.25-1.17-.46-4.02-1.16-9.05-1.16h-33.4v12.35h33.4Z"/>
      <path class="cls-10" d="M1759.04,1597.48c-19.8,0-38.32-6.81-52.14-19.17-14.77-13.21-22.91-31.42-22.91-51.3v-71.78c-13.29-25.03-30.66-43.39-47.5-61.19-16.98-17.95-33.02-34.9-43.25-56.8-12.26-25.41-14.6-52.87-6.4-75.37,7.1-19.49,21.46-34.57,41.55-43.6,11.17-5.17,22.59-7.79,33.96-7.79,33.51,0,63.05,22.92,77.08,59.83.05.14.11.28.16.42,5.32,14.71,7.6,31.61,9.81,47.95,1.54,11.38,2.99,22.13,5.27,30.85,1.88,7.19,3.64,10.25,4.44,11.37.1,0,.18,0,.26,0,.75-1.02,2.55-4.03,4.41-11.26,2.23-8.67,3.61-19.37,5.07-30.7,2.11-16.41,4.3-33.39,9.65-48.2,6.47-17.8,15.72-31.83,27.52-41.75,13.98-11.76,31.12-17.72,50.96-17.72,11.65,0,22.65,2.36,32.69,7,29.97,13.41,46.48,39.36,46.48,73.08,0,14.83-3.8,30.26-11.29,45.87-10.35,22.17-26.5,39.5-43.6,57.85-16.47,17.68-33.47,35.92-47.16,60.48v71.47c0,19.89-8.05,38.09-22.67,51.24-13.78,12.4-32.38,19.23-52.38,19.23Z"/>
    </g>
    <text class="cls-4" transform="translate(20.47 1575.48)"><tspan class="cls-11" x="0" y="0">W</tspan><tspan class="cls-6" x="384.39" y="0">A</tspan><tspan class="cls-7" x="659.42" y="0">T</tspan><tspan class="cls-14" x="979.74" y="0">E</tspan><tspan class="cls-7" x="1276.73" y="0">RY</tspan></text>
    <g>
      <path class="cls-19" d="M69.22,1462.69l-44.39-164.74c-1.37-5.03-1.83-10.07-1.83-15.1,0-28.83,19.68-45.3,48.51-45.3,14.64,0,33.86,6.41,41.18,33.86l41.19,150.55c7.32,26.08,13.73,35.69,25.17,35.69,1.83,0,4.12-.46,6.41-.92,11.9-3.2,13.73-5.95,13.73-17.39,0-6.86-1.37-16.47-4.58-27.91l-29.29-111.2c-1.83-6.86-2.75-12.81-2.75-18.76,0-23.8,10.98-37.52,34.32-42.56,5.03-1.37,9.61-1.83,14.19-1.83,17.85,0,34.78,11.9,41.64,38.9l37.07,145.98c7.78,29.75,15.56,35.69,25.17,35.69,2.29,0,4.12-.46,6.41-.92,8.24-2.29,12.36-6.86,12.36-13.73,0-.46.46-4.58-3.2-32.03-8.24-64.98-13.27-88.32-13.27-112.12,0-34.32,21.51-61.78,56.29-61.78s54,22.88,54,60.86c0,24.25-8.7,52.63-15.56,76.42l-25.63,88.32c-17.39,60.4-27.91,106.17-80.08,106.17-42.1,0-64.07-24.25-76.88-84.2h-3.2c-12.36,59.95-29.29,84.2-70.01,84.2-56.29,0-70.47-44.85-86.95-106.17Z"/>
      <path class="cls-19" d="M412.43,1479.62l60.41-171.6c16.47-47.59,37.52-75.96,86.49-75.96s70.47,31.58,86.03,75.96l59.95,171.6c16.93,48.05,7.32,81.91-34.32,87.86-4.12.46-8.24.92-12.36.92-27.91,0-49.42-13.27-53.08-33.41-2.29-11.44-2.29-20.13-.92-26.08,2.75-12.36,5.49-17.85,4.12-23.34-.92-3.2-3.2-4.58-7.32-4.58h-85.12c-7.78,0-8.69,6.86-6.41,13.73,1.37,3.2,2.29,8.24,3.66,14.19,1.37,5.95.92,14.64-.92,26.08-4.58,23.34-28.83,33.41-50.79,33.41-4.12,0-8.7-.46-13.27-.92-40.73-5.49-53.08-39.81-36.15-87.86ZM592.73,1416.93l-23.8-74.59c-1.83-5.95-3.66-9.61-9.61-9.61s-8.24,3.66-10.07,9.61l-23.34,74.59h66.81Z"/>
      <path class="cls-19" d="M676.01,1286.05c0-30.66,17.39-50.79,51.71-50.79h197.23c34.32,0,51.71,20.13,51.71,50.79s-21.05,49.88-51.71,49.88c-42.56,0-43.02-23.34-65.44-23.34l-4.12,8.24c3.66,8.24,19.22,23.34,19.22,70.93v132.25c0,25.17-21.05,43.47-48.05,43.47s-48.51-18.3-48.51-43.47v-132.25c0-47.59,16.02-62.24,19.68-70.93l-4.58-8.24c-22.88,0-22.42,23.34-65.44,23.34-30.66,0-51.71-18.76-51.71-49.88Z"/>
      <path class="cls-19" d="M1118.52,1566.57c-60.41,0-111.66-15.56-111.66-112.12,0-64.52,31.58-103.42,51.71-109.83l-2.29-8.69h-7.78c-27.91,0-45.3-19.22-45.76-50.34v-1.37c0-29.29,17.85-48.96,45.76-48.96h164.28c32.49,0,48.96,15.1,48.96,45.76,0,27.46-15.56,45.3-48.96,45.3h-94.73c-11.44,0-16.93,6.41-16.93,19.68v34.32c30.66-6.86,65.44-18.76,95.18-18.76s43.02,13.27,43.02,34.78-14.19,35.24-43.02,35.69h-2.75c-27.91,0-62.23-11.44-92.89-18.3v59.95c0,11.44,5.49,13.27,9.15,13.27,2.75,0,6.41-1.37,10.98-3.66,30.66-17.85,59.95-29.29,87.86-29.29,39.81,0,60.4,22.88,60.4,56.29,0,36.15-20.59,56.29-68.64,56.29h-81.91Z"/>
      <path class="cls-19" d="M1476.36,1517.15c-2.29-51.71-27.46-71.39-66.35-71.39h-9.15v73.22c0,31.58-18.76,48.51-46.68,48.51-29.74,0-48.05-16.93-48.05-48.51v-64.52c0-64.52,21.51-95.18,51.25-109.83l-2.29-8.69h-7.32c-27.91,0-44.85-19.22-46.22-50.34v-1.37c0-29.29,18.3-49.88,46.22-49.88h116.69c65.44,0,109.37,30.2,109.37,99.76,0,54-31.58,80.54-62.23,84.2v5.95c37.98,9.15,65.44,40.27,65.44,92.9,0,33.41-19.22,50.34-50.34,50.34s-48.96-20.59-50.34-50.34ZM1398.57,1375.74c0,13.27,4.12,16.47,17.39,16.47h43.02c25.63,0,36.61-12.36,36.61-32.95s-10.98-33.41-36.61-33.41h-43.02c-13.27,0-17.39,1.83-17.39,16.02v33.86Z"/>
      <path class="cls-19" d="M1635.61,1239.83c33.41-15.56,62.24,4.58,74.59,37.07,13.73,37.98,4.58,108,44.85,108s31.12-70.01,44.85-108c9.15-25.17,25.17-41.64,53.08-41.64,7.32,0,14.64,1.37,21.51,4.58,20.59,9.15,30.66,26.08,30.66,48.51,0,10.52-2.75,21.96-8.7,34.32-18.3,39.35-63.61,65.44-93.35,123.1v78.25c0,25.17-20.59,43.47-48.05,43.47s-48.05-18.3-48.05-43.47v-78.25c-28.37-58.12-75.05-83.74-93.35-123.1-14.64-30.2-12.81-67.27,21.97-82.83Z"/>
    </g>
  </g>
</svg>